<svg width="24" height="24" viewBox="0 0 24 24" fill="none" xmlns="http://www.w3.org/2000/svg">
    <path fill-rule="evenodd" clip-rule="evenodd" d="M19.707 6.3084C19.7999 6.40614 19.8736 6.52219 19.9239 6.64992C19.9741 6.77764 20 6.91454 20 7.05279C20 7.19105 19.9741 7.32794 19.9239 7.45567C19.8736 7.58339 19.7999 7.69944 19.707 7.79719L10.3072 17.6916C10.2143 17.7894 10.1041 17.8669 9.98276 17.9198C9.86142 17.9728 9.73136 18 9.60002 18C9.46868 18 9.33862 17.9728 9.21728 17.9198C9.09594 17.8669 8.9857 17.7894 8.89284 17.6916L4.29293 12.8497C4.10537 12.6522 4 12.3845 4 12.1053C4 11.8261 4.10537 11.5583 4.29293 11.3609C4.48048 11.1634 4.73487 11.0525 5.00011 11.0525C5.26536 11.0525 5.51974 11.1634 5.7073 11.3609L9.60002 15.4584L18.2926 6.3084C18.3855 6.21062 18.4958 6.13307 18.6171 6.08015C18.7384 6.02724 18.8685 6 18.9998 6C19.1312 6 19.2612 6.02724 19.3826 6.08015C19.5039 6.13307 19.6142 6.21062 19.707 6.3084Z" fill="#EBEBEB"/>
</svg>