<svg width="28" height="22" viewBox="0 0 28 22" fill="none" xmlns="http://www.w3.org/2000/svg">
<path d="M27.2268 10.4668C24.5334 4.2135 19.4668 0.333496 14.0001 0.333496C8.53342 0.333496 3.46676 4.2135 0.773422 10.4668C0.700005 10.6351 0.662109 10.8166 0.662109 11.0002C0.662109 11.1837 0.700005 11.3653 0.773422 11.5335C3.46676 17.7868 8.53342 21.6668 14.0001 21.6668C19.4668 21.6668 24.5334 17.7868 27.2268 11.5335C27.3002 11.3653 27.3381 11.1837 27.3381 11.0002C27.3381 10.8166 27.3002 10.6351 27.2268 10.4668ZM14.0001 19.0002C9.77342 19.0002 5.77342 15.9468 3.46676 11.0002C5.77342 6.0535 9.77342 3.00016 14.0001 3.00016C18.2268 3.00016 22.2268 6.0535 24.5334 11.0002C22.2268 15.9468 18.2268 19.0002 14.0001 19.0002ZM14.0001 5.66683C12.9453 5.66683 11.9141 5.97962 11.037 6.56566C10.16 7.15169 9.4764 7.98464 9.07273 8.95918C8.66906 9.93372 8.56345 11.0061 8.76923 12.0406C8.97502 13.0752 9.48297 14.0255 10.2289 14.7714C10.9747 15.5173 11.925 16.0252 12.9596 16.231C13.9942 16.4368 15.0665 16.3312 16.0411 15.9275C17.0156 15.5239 17.8486 14.8403 18.4346 13.9632C19.0206 13.0861 19.3334 12.055 19.3334 11.0002C19.3334 9.58568 18.7715 8.22912 17.7713 7.22893C16.7711 6.22873 15.4146 5.66683 14.0001 5.66683ZM14.0001 13.6668C13.4727 13.6668 12.9571 13.5104 12.5186 13.2174C12.08 12.9244 11.7382 12.5079 11.5364 12.0207C11.3346 11.5334 11.2818 10.9972 11.3847 10.4799C11.4876 9.96264 11.7415 9.48749 12.1145 9.11455C12.4874 8.74161 12.9626 8.48763 13.4798 8.38474C13.9971 8.28184 14.5333 8.33465 15.0206 8.53648C15.5078 8.73832 15.9243 9.08011 16.2173 9.51864C16.5104 9.95717 16.6668 10.4727 16.6668 11.0002C16.6668 11.7074 16.3858 12.3857 15.8857 12.8858C15.3856 13.3859 14.7073 13.6668 14.0001 13.6668Z" fill="#EBEBEB"/>
<path d="M27.2268 10.4668C24.5334 4.2135 19.4668 0.333496 14.0001 0.333496C8.53342 0.333496 3.46676 4.2135 0.773422 10.4668C0.700005 10.6351 0.662109 10.8166 0.662109 11.0002C0.662109 11.1837 0.700005 11.3653 0.773422 11.5335C3.46676 17.7868 8.53342 21.6668 14.0001 21.6668C19.4668 21.6668 24.5334 17.7868 27.2268 11.5335C27.3002 11.3653 27.3381 11.1837 27.3381 11.0002C27.3381 10.8166 27.3002 10.6351 27.2268 10.4668ZM14.0001 19.0002C9.77342 19.0002 5.77342 15.9468 3.46676 11.0002C5.77342 6.0535 9.77342 3.00016 14.0001 3.00016C18.2268 3.00016 22.2268 6.0535 24.5334 11.0002C22.2268 15.9468 18.2268 19.0002 14.0001 19.0002ZM14.0001 5.66683C12.9453 5.66683 11.9141 5.97962 11.037 6.56566C10.16 7.15169 9.4764 7.98464 9.07273 8.95918C8.66906 9.93372 8.56345 11.0061 8.76923 12.0406C8.97502 13.0752 9.48297 14.0255 10.2289 14.7714C10.9747 15.5173 11.925 16.0252 12.9596 16.231C13.9942 16.4368 15.0665 16.3312 16.0411 15.9275C17.0156 15.5239 17.8486 14.8403 18.4346 13.9632C19.0206 13.0861 19.3334 12.055 19.3334 11.0002C19.3334 9.58568 18.7715 8.22912 17.7713 7.22893C16.7711 6.22873 15.4146 5.66683 14.0001 5.66683ZM14.0001 13.6668C13.4727 13.6668 12.9571 13.5104 12.5186 13.2174C12.08 12.9244 11.7382 12.5079 11.5364 12.0207C11.3346 11.5334 11.2818 10.9972 11.3847 10.4799C11.4876 9.96264 11.7415 9.48749 12.1145 9.11455C12.4874 8.74161 12.9626 8.48763 13.4798 8.38474C13.9971 8.28184 14.5333 8.33465 15.0206 8.53648C15.5078 8.73832 15.9243 9.08011 16.2173 9.51864C16.5104 9.95717 16.6668 10.4727 16.6668 11.0002C16.6668 11.7074 16.3858 12.3857 15.8857 12.8858C15.3856 13.3859 14.7073 13.6668 14.0001 13.6668Z" fill="#020202" fill-opacity="0.2"/>
</svg>
