<svg width="32" height="32" viewBox="0 0 32 32" fill="none" xmlns="http://www.w3.org/2000/svg">
<path d="M14.5876 8.10659C15.0552 8.0349 15.5278 7.99924 16.0009 7.99992C20.2409 7.99992 24.2276 11.0533 26.5476 15.9999C26.1928 16.7527 25.792 17.483 25.3476 18.1866C25.2065 18.405 25.1323 18.6599 25.1342 18.9199C25.1372 19.2109 25.2353 19.4929 25.4135 19.723C25.5917 19.953 25.8403 20.1184 26.1214 20.1939C26.4024 20.2695 26.7004 20.251 26.9699 20.1414C27.2395 20.0317 27.4658 19.8369 27.6142 19.5866C28.2355 18.6105 28.7751 17.5848 29.2276 16.5199C29.2991 16.3536 29.336 16.1744 29.336 15.9933C29.336 15.8122 29.2991 15.633 29.2276 15.4666C26.5342 9.21326 21.4676 5.33326 16.0009 5.33326C15.3751 5.3301 14.7503 5.38365 14.1342 5.49326C13.9591 5.52302 13.7916 5.58698 13.6412 5.68149C13.4909 5.776 13.3606 5.8992 13.2578 6.04406C13.155 6.18892 13.0818 6.3526 13.0423 6.52576C13.0028 6.69892 12.9978 6.87816 13.0276 7.05326C13.0573 7.22835 13.1213 7.39587 13.2158 7.54625C13.3103 7.69662 13.4335 7.82691 13.5784 7.92968C13.7232 8.03244 13.8869 8.10566 14.0601 8.14517C14.2332 8.18468 14.4125 8.18969 14.5876 8.15992V8.10659ZM4.94757 3.05325C4.82325 2.92894 4.67566 2.83032 4.51323 2.76304C4.3508 2.69576 4.17671 2.66113 4.0009 2.66113C3.82509 2.66113 3.651 2.69576 3.48857 2.76304C3.32614 2.83032 3.17855 2.92894 3.05423 3.05325C2.80316 3.30433 2.66211 3.64485 2.66211 3.99992C2.66211 4.35499 2.80316 4.69552 3.05423 4.94659L7.18756 9.06659C5.30166 10.882 3.80071 13.0586 2.77423 15.4666C2.70081 15.6348 2.66292 15.8164 2.66292 15.9999C2.66292 16.1835 2.70081 16.365 2.77423 16.5333C5.46756 22.7866 10.5342 26.6666 16.0009 26.6666C18.397 26.65 20.7366 25.9366 22.7342 24.6133L27.0542 28.9466C27.1782 29.0716 27.3256 29.1708 27.4881 29.2384C27.6506 29.3061 27.8249 29.341 28.0009 29.341C28.1769 29.341 28.3512 29.3061 28.5137 29.2384C28.6761 29.1708 28.8236 29.0716 28.9476 28.9466C29.0725 28.8226 29.1717 28.6752 29.2394 28.5127C29.3071 28.3502 29.342 28.1759 29.342 27.9999C29.342 27.8239 29.3071 27.6496 29.2394 27.4872C29.1717 27.3247 29.0725 27.1772 28.9476 27.0533L4.94757 3.05325ZM13.4276 15.3066L16.6942 18.5733C16.4689 18.6379 16.2353 18.6693 16.0009 18.6666C15.2937 18.6666 14.6154 18.3856 14.1153 17.8855C13.6152 17.3854 13.3342 16.7072 13.3342 15.9999C13.3315 15.7655 13.3629 15.5319 13.4276 15.3066ZM16.0009 23.9999C11.7609 23.9999 7.77423 20.9466 5.46757 15.9999C6.32902 14.0983 7.55166 12.382 9.06757 10.9466L11.4276 13.3333C10.8732 14.345 10.6619 15.5092 10.8252 16.6512C10.9886 17.7932 11.5179 18.8515 12.3336 19.6672C13.1493 20.483 14.2076 21.0122 15.3496 21.1756C16.4916 21.3389 17.6558 21.1276 18.6676 20.5733L20.7876 22.6666C19.3357 23.5211 17.6855 23.9808 16.0009 23.9999Z" fill="#EBEBEB"/>
<path d="M14.5876 8.10659C15.0552 8.0349 15.5278 7.99924 16.0009 7.99992C20.2409 7.99992 24.2276 11.0533 26.5476 15.9999C26.1928 16.7527 25.792 17.483 25.3476 18.1866C25.2065 18.405 25.1323 18.6599 25.1342 18.9199C25.1372 19.2109 25.2353 19.4929 25.4135 19.723C25.5917 19.953 25.8403 20.1184 26.1214 20.1939C26.4024 20.2695 26.7004 20.251 26.9699 20.1414C27.2395 20.0317 27.4658 19.8369 27.6142 19.5866C28.2355 18.6105 28.7751 17.5848 29.2276 16.5199C29.2991 16.3536 29.336 16.1744 29.336 15.9933C29.336 15.8122 29.2991 15.633 29.2276 15.4666C26.5342 9.21326 21.4676 5.33326 16.0009 5.33326C15.3751 5.3301 14.7503 5.38365 14.1342 5.49326C13.9591 5.52302 13.7916 5.58698 13.6412 5.68149C13.4909 5.776 13.3606 5.8992 13.2578 6.04406C13.155 6.18892 13.0818 6.3526 13.0423 6.52576C13.0028 6.69892 12.9978 6.87816 13.0276 7.05326C13.0573 7.22835 13.1213 7.39587 13.2158 7.54625C13.3103 7.69662 13.4335 7.82691 13.5784 7.92968C13.7232 8.03244 13.8869 8.10566 14.0601 8.14517C14.2332 8.18468 14.4125 8.18969 14.5876 8.15992V8.10659ZM4.94757 3.05325C4.82325 2.92894 4.67566 2.83032 4.51323 2.76304C4.3508 2.69576 4.17671 2.66113 4.0009 2.66113C3.82509 2.66113 3.651 2.69576 3.48857 2.76304C3.32614 2.83032 3.17855 2.92894 3.05423 3.05325C2.80316 3.30433 2.66211 3.64485 2.66211 3.99992C2.66211 4.35499 2.80316 4.69552 3.05423 4.94659L7.18756 9.06659C5.30166 10.882 3.80071 13.0586 2.77423 15.4666C2.70081 15.6348 2.66292 15.8164 2.66292 15.9999C2.66292 16.1835 2.70081 16.365 2.77423 16.5333C5.46756 22.7866 10.5342 26.6666 16.0009 26.6666C18.397 26.65 20.7366 25.9366 22.7342 24.6133L27.0542 28.9466C27.1782 29.0716 27.3256 29.1708 27.4881 29.2384C27.6506 29.3061 27.8249 29.341 28.0009 29.341C28.1769 29.341 28.3512 29.3061 28.5137 29.2384C28.6761 29.1708 28.8236 29.0716 28.9476 28.9466C29.0725 28.8226 29.1717 28.6752 29.2394 28.5127C29.3071 28.3502 29.342 28.1759 29.342 27.9999C29.342 27.8239 29.3071 27.6496 29.2394 27.4872C29.1717 27.3247 29.0725 27.1772 28.9476 27.0533L4.94757 3.05325ZM13.4276 15.3066L16.6942 18.5733C16.4689 18.6379 16.2353 18.6693 16.0009 18.6666C15.2937 18.6666 14.6154 18.3856 14.1153 17.8855C13.6152 17.3854 13.3342 16.7072 13.3342 15.9999C13.3315 15.7655 13.3629 15.5319 13.4276 15.3066ZM16.0009 23.9999C11.7609 23.9999 7.77423 20.9466 5.46757 15.9999C6.32902 14.0983 7.55166 12.382 9.06757 10.9466L11.4276 13.3333C10.8732 14.345 10.6619 15.5092 10.8252 16.6512C10.9886 17.7932 11.5179 18.8515 12.3336 19.6672C13.1493 20.483 14.2076 21.0122 15.3496 21.1756C16.4916 21.3389 17.6558 21.1276 18.6676 20.5733L20.7876 22.6666C19.3357 23.5211 17.6855 23.9808 16.0009 23.9999Z" fill="#020202" fill-opacity="0.2"/>
</svg>
