<svg width="24" height="28" viewBox="0 0 24 28" fill="none" xmlns="http://www.w3.org/2000/svg">
    <path d="M12.0008 0.285645C15.7879 0.285645 18.858 3.35569 18.858 7.14279L18.8603 9.45449C19.8236 9.51418 20.4381 9.68272 21.0715 10.0215C21.8294 10.4268 22.4311 11.0285 22.8364 11.7864C23.2766 12.6095 23.4294 13.4007 23.4294 14.9666V22.1761C23.4294 23.7421 23.2766 24.5332 22.8364 25.3563C22.4311 26.1142 21.8294 26.7159 21.0715 27.1212C20.2484 27.5614 19.4573 27.7142 17.8913 27.7142H6.11035C4.54442 27.7142 3.75331 27.5614 2.93013 27.1212C2.17224 26.7159 1.5706 26.1142 1.16528 25.3563C0.725037 24.5332 0.572266 23.7421 0.572266 22.1761V14.9666C0.572266 13.4007 0.725037 12.6095 1.16528 11.7864C1.5706 11.0285 2.17224 10.4268 2.93013 10.0215C3.56387 9.68259 4.1786 9.51404 5.14249 9.45442L5.14369 7.14279C5.14369 3.35569 8.21374 0.285645 12.0008 0.285645ZM17.8913 11.7142H6.11035C4.88949 11.7142 4.45485 11.7981 4.00807 12.0371C3.64851 12.2294 3.37315 12.5047 3.18085 12.8643C2.94191 13.3111 2.85798 13.7457 2.85798 14.9666V22.1761C2.85798 23.397 2.94191 23.8316 3.18085 24.2784C3.37315 24.638 3.64851 24.9133 4.00807 25.1056C4.45485 25.3446 4.88949 25.4285 6.11035 25.4285H17.8913C19.1122 25.4285 19.5468 25.3446 19.9936 25.1056C20.3532 24.9133 20.6285 24.638 20.8208 24.2784C21.0598 23.8316 21.1437 23.397 21.1437 22.1761V14.9666C21.1437 13.7457 21.0598 13.3111 20.8208 12.8643C20.6285 12.5047 20.3532 12.2294 19.9936 12.0371C19.5468 11.7981 19.1122 11.7142 17.8913 11.7142ZM12.0008 15.1428C12.632 15.1428 13.1437 15.6545 13.1437 16.2856V19.7142C13.1437 20.3454 12.632 20.8571 12.0008 20.8571C11.3697 20.8571 10.858 20.3454 10.858 19.7142V16.2856C10.858 15.6545 11.3697 15.1428 12.0008 15.1428ZM12.0008 2.57136C9.47611 2.57136 7.42941 4.61806 7.42941 7.14279V9.4285H16.5723V7.14279C16.5723 4.61806 14.5256 2.57136 12.0008 2.57136Z" fill="#BCBCBC"/>
</svg>
