<svg width="28" height="22" viewBox="0 0 28 22" fill="none" xmlns="http://www.w3.org/2000/svg">
<path fill-rule="evenodd" clip-rule="evenodd" d="M8.40078 0.466797H8.35051H8.35047C7.27309 0.466784 6.39195 0.466771 5.67586 0.525277C4.93465 0.585837 4.26521 0.715011 3.64002 1.03356C2.66158 1.5321 1.86609 2.3276 1.36754 3.30604C1.04899 3.93122 0.919822 4.60066 0.859262 5.34188C0.800755 6.05798 0.800768 6.9391 0.800782 8.0165V8.01653V8.0668V13.9334V13.9837C0.800768 15.0612 0.800755 15.9422 0.859262 16.6584C0.919822 17.3996 1.04899 18.069 1.36754 18.6942C1.86609 19.6726 2.66158 20.4681 3.64002 20.9666C4.26521 21.2852 4.93465 21.4144 5.67586 21.4749C6.39197 21.5334 7.2731 21.5334 8.3505 21.5334H8.40078H19.6008H19.6511C20.7284 21.5334 21.6096 21.5334 22.3257 21.4749C23.0669 21.4144 23.7364 21.2852 24.3615 20.9666C25.34 20.4681 26.1355 19.6726 26.634 18.6942C26.9525 18.069 27.0817 17.3996 27.1423 16.6584C27.2008 15.9422 27.2008 15.0612 27.2008 13.9837V13.9334V8.0668V8.01652C27.2008 6.93912 27.2008 6.05798 27.1423 5.34188C27.0817 4.60066 26.9525 3.93122 26.634 3.30604C26.1355 2.3276 25.34 1.5321 24.3615 1.03356C23.7364 0.715011 23.0669 0.585837 22.3257 0.525277C21.6096 0.466771 20.7284 0.466784 19.6511 0.466797H19.6008H8.40078ZM5.17495 3.01634C5.35571 2.97454 5.5805 2.94106 5.8713 2.9173C6.47811 2.86773 7.26087 2.8668 8.40078 2.8668H19.6008C20.7407 2.8668 21.5235 2.86773 22.1303 2.9173C22.4211 2.94106 22.6459 2.97454 22.8265 3.01634L17.4812 7.69357C16.7108 8.36772 16.1833 8.82812 15.744 9.15665C15.3168 9.47612 15.0451 9.61412 14.81 9.68372C14.2817 9.83985 13.7197 9.83985 13.1916 9.68372C12.9565 9.61412 12.6847 9.47612 12.2575 9.15665C11.8183 8.82812 11.2908 8.36772 10.5204 7.69357L5.17495 3.01634ZM3.4013 4.65345C3.33526 4.86102 3.28405 5.13644 3.25129 5.53732C3.20171 6.14413 3.20078 6.92689 3.20078 8.0668V13.9334C3.20078 15.0733 3.20171 15.8561 3.25129 16.4629C3.29973 17.0557 3.38853 17.3741 3.50595 17.6046C3.77441 18.1314 4.20275 18.5598 4.72961 18.8282C4.96006 18.9457 5.2785 19.0345 5.8713 19.0829C6.47811 19.1325 7.26087 19.1334 8.40078 19.1334H19.6008C20.7407 19.1334 21.5235 19.1325 22.1303 19.0829C22.7231 19.0345 23.0415 18.9457 23.272 18.8282C23.7988 18.5598 24.2272 18.1314 24.4956 17.6046C24.6131 17.3741 24.7019 17.0557 24.7503 16.4629C24.7999 15.8561 24.8008 15.0733 24.8008 13.9334V8.0668C24.8008 6.92689 24.7999 6.14413 24.7503 5.53732C24.7175 5.13644 24.6663 4.86102 24.6003 4.65345L19.0616 9.49972L19.0267 9.53038C18.2997 10.1664 17.7032 10.6884 17.1813 11.0787C16.6391 11.4841 16.1069 11.8029 15.4905 11.9852C14.5181 12.2728 13.4833 12.2728 12.5109 11.9852C11.8947 11.8029 11.3624 11.4841 10.8202 11.0787C10.2984 10.6884 9.70179 10.1664 8.97497 9.53038L8.93995 9.49972L3.4013 4.65345Z" fill="#EBEBEB"/>
<path fill-rule="evenodd" clip-rule="evenodd" d="M8.40078 0.466797H8.35051H8.35047C7.27309 0.466784 6.39195 0.466771 5.67586 0.525277C4.93465 0.585837 4.26521 0.715011 3.64002 1.03356C2.66158 1.5321 1.86609 2.3276 1.36754 3.30604C1.04899 3.93122 0.919822 4.60066 0.859262 5.34188C0.800755 6.05798 0.800768 6.9391 0.800782 8.0165V8.01653V8.0668V13.9334V13.9837C0.800768 15.0612 0.800755 15.9422 0.859262 16.6584C0.919822 17.3996 1.04899 18.069 1.36754 18.6942C1.86609 19.6726 2.66158 20.4681 3.64002 20.9666C4.26521 21.2852 4.93465 21.4144 5.67586 21.4749C6.39197 21.5334 7.2731 21.5334 8.3505 21.5334H8.40078H19.6008H19.6511C20.7284 21.5334 21.6096 21.5334 22.3257 21.4749C23.0669 21.4144 23.7364 21.2852 24.3615 20.9666C25.34 20.4681 26.1355 19.6726 26.634 18.6942C26.9525 18.069 27.0817 17.3996 27.1423 16.6584C27.2008 15.9422 27.2008 15.0612 27.2008 13.9837V13.9334V8.0668V8.01652C27.2008 6.93912 27.2008 6.05798 27.1423 5.34188C27.0817 4.60066 26.9525 3.93122 26.634 3.30604C26.1355 2.3276 25.34 1.5321 24.3615 1.03356C23.7364 0.715011 23.0669 0.585837 22.3257 0.525277C21.6096 0.466771 20.7284 0.466784 19.6511 0.466797H19.6008H8.40078ZM5.17495 3.01634C5.35571 2.97454 5.5805 2.94106 5.8713 2.9173C6.47811 2.86773 7.26087 2.8668 8.40078 2.8668H19.6008C20.7407 2.8668 21.5235 2.86773 22.1303 2.9173C22.4211 2.94106 22.6459 2.97454 22.8265 3.01634L17.4812 7.69357C16.7108 8.36772 16.1833 8.82812 15.744 9.15665C15.3168 9.47612 15.0451 9.61412 14.81 9.68372C14.2817 9.83985 13.7197 9.83985 13.1916 9.68372C12.9565 9.61412 12.6847 9.47612 12.2575 9.15665C11.8183 8.82812 11.2908 8.36772 10.5204 7.69357L5.17495 3.01634ZM3.4013 4.65345C3.33526 4.86102 3.28405 5.13644 3.25129 5.53732C3.20171 6.14413 3.20078 6.92689 3.20078 8.0668V13.9334C3.20078 15.0733 3.20171 15.8561 3.25129 16.4629C3.29973 17.0557 3.38853 17.3741 3.50595 17.6046C3.77441 18.1314 4.20275 18.5598 4.72961 18.8282C4.96006 18.9457 5.2785 19.0345 5.8713 19.0829C6.47811 19.1325 7.26087 19.1334 8.40078 19.1334H19.6008C20.7407 19.1334 21.5235 19.1325 22.1303 19.0829C22.7231 19.0345 23.0415 18.9457 23.272 18.8282C23.7988 18.5598 24.2272 18.1314 24.4956 17.6046C24.6131 17.3741 24.7019 17.0557 24.7503 16.4629C24.7999 15.8561 24.8008 15.0733 24.8008 13.9334V8.0668C24.8008 6.92689 24.7999 6.14413 24.7503 5.53732C24.7175 5.13644 24.6663 4.86102 24.6003 4.65345L19.0616 9.49972L19.0267 9.53038C18.2997 10.1664 17.7032 10.6884 17.1813 11.0787C16.6391 11.4841 16.1069 11.8029 15.4905 11.9852C14.5181 12.2728 13.4833 12.2728 12.5109 11.9852C11.8947 11.8029 11.3624 11.4841 10.8202 11.0787C10.2984 10.6884 9.70179 10.1664 8.97497 9.53038L8.93995 9.49972L3.4013 4.65345Z" fill="#020202" fill-opacity="0.2"/>
</svg>
