<svg width="32" height="32" viewBox="0 0 32 32" fill="none" xmlns="http://www.w3.org/2000/svg">
<path d="M16 0C24.8366 0 32 7.16344 32 16C32 24.8366 24.8366 32 16 32C7.16344 32 0 24.8366 0 16C0 7.16344 7.16344 0 16 0ZM16 24.6667C13.2187 24.6667 10.5601 25.4427 8.27095 26.8654C10.4509 28.4194 13.1187 29.3333 16 29.3333C18.8807 29.3333 21.548 28.4198 23.7281 26.8666C21.4393 25.4425 18.7809 24.6667 16 24.6667ZM16 2.66667C8.6362 2.66667 2.66667 8.6362 2.66667 16C2.66667 19.4876 4.00567 22.6624 6.19764 25.0384C9.0475 23.0776 12.4413 22 16 22C19.5591 22 22.9532 23.0778 25.8036 25.0365C27.9948 22.6612 29.3333 19.4869 29.3333 16C29.3333 8.6362 23.3638 2.66667 16 2.66667ZM16 7.33333C19.4989 7.33333 22.3333 10.1678 22.3333 13.6667C22.3333 17.1655 19.4989 20 16 20C12.5011 20 9.66667 17.1655 9.66667 13.6667C9.66667 10.1678 12.5011 7.33333 16 7.33333ZM16 10C13.9739 10 12.3333 11.6405 12.3333 13.6667C12.3333 15.6928 13.9739 17.3333 16 17.3333C18.0261 17.3333 19.6667 15.6928 19.6667 13.6667C19.6667 11.6405 18.0261 10 16 10Z" fill="#BCBCBC"/>
</svg>
