<svg width="32" height="32" viewBox="0 0 32 32" fill="none" xmlns="http://www.w3.org/2000/svg">
<g clip-path="url(#clip0_833_4330)">
<path fill-rule="evenodd" clip-rule="evenodd" d="M16 28C22.6274 28 28 22.6274 28 16C28 9.37258 22.6274 4 16 4C9.37258 4 4 9.37258 4 16C4 22.6274 9.37258 28 16 28Z" fill="#121212"/>
<path fill-rule="evenodd" clip-rule="evenodd" d="M16 32C24.8365 32 32 24.8365 32 16C32 7.16344 24.8365 0 16 0C7.16344 0 0 7.16344 0 16C0 24.8365 7.16344 32 16 32ZM14.1209 9.4758C13.9472 9.38284 13.7748 9.33333 13.2993 9.33333H12.0341C11.5586 9.33333 11.3862 9.38284 11.2123 9.4758C11.0385 9.56877 10.9021 9.70519 10.8091 9.87901C10.7162 10.0528 10.6667 10.2253 10.6667 10.7007V21.2992C10.6667 21.7748 10.7162 21.9472 10.8091 22.1209C10.9021 22.2948 11.0385 22.4312 11.2123 22.5241C11.3862 22.6172 11.5586 22.6667 12.0341 22.6667H13.2993C13.7748 22.6667 13.9472 22.6172 14.1209 22.5241C14.2948 22.4312 14.4312 22.2948 14.5241 22.1209C14.6172 21.9472 14.6667 21.7748 14.6667 21.2992V10.7007C14.6667 10.2253 14.6172 10.0528 14.5241 9.87901C14.4312 9.70519 14.2948 9.56877 14.1209 9.4758ZM20.7876 9.4758C20.6139 9.38284 20.4415 9.33333 19.9659 9.33333H18.7008C18.2252 9.33333 18.0528 9.38284 17.8791 9.4758C17.7052 9.56877 17.5688 9.70519 17.4759 9.87901C17.3828 10.0528 17.3333 10.2253 17.3333 10.7007V21.2992C17.3333 21.7748 17.3828 21.9472 17.4759 22.1209C17.5688 22.2948 17.7052 22.4312 17.8791 22.5241C18.0528 22.6172 18.2252 22.6667 18.7008 22.6667H19.9659C20.4415 22.6667 20.6139 22.6172 20.7876 22.5241C20.9615 22.4312 21.0979 22.2948 21.1908 22.1209C21.2839 21.9472 21.3333 21.7748 21.3333 21.2992V10.7007C21.3333 10.2253 21.2839 10.0528 21.1908 9.87901C21.0979 9.70519 20.9615 9.56877 20.7876 9.4758Z" fill="#EBEBEB"/>
</g>
<defs>
<clipPath id="clip0_833_4330">
<rect width="32" height="32" fill="white"/>
</clipPath>
</defs>
</svg>
