<svg width="32" height="32" viewBox="0 0 32 32" fill="none" xmlns="http://www.w3.org/2000/svg">
<path d="M16.325 6.00003C17.4976 6.00003 18.6 6.86759 18.6 8.11141V23.8886C18.6 25.1324 17.4976 26 16.325 26C15.3344 26 14.3685 25.65 13.6431 25.0024L8.1311 20.0834H5.782C4.3286 20.0834 3 19.0133 3 17.5207V14.4793C3 12.9855 4.3286 11.9166 5.782 11.9166H8.1311L13.6431 6.99634C14.3749 6.35171 15.3325 5.99596 16.325 6.00003ZM16.26 8.25142C15.8801 8.26171 15.5165 8.40176 15.2343 8.64645L9.3856 13.8668C9.16923 14.0597 8.88505 14.1668 8.59 14.1668H5.782C5.6 14.1668 5.34 14.273 5.34 14.4793V17.5207C5.34 17.7282 5.6 17.8333 5.782 17.8333H8.59C8.88523 17.8336 9.16943 17.9412 9.3856 18.1345L15.2356 23.3536C15.4956 23.5874 15.8609 23.7349 16.26 23.7499V8.25142ZM25.7994 8.83146C27.7754 10.7403 29 13.2405 29 16.0006C29 18.7608 27.7741 21.261 25.7994 23.1698C25.691 23.2746 25.5622 23.3577 25.4204 23.4146C25.2785 23.4715 25.1264 23.5009 24.9728 23.5013C24.8191 23.5016 24.6668 23.4729 24.5247 23.4166C24.3826 23.3604 24.2534 23.2778 24.1445 23.1736C24.0356 23.0693 23.9491 22.9455 23.8899 22.8091C23.8308 22.6727 23.8002 22.5265 23.7998 22.3787C23.7994 22.2309 23.8294 22.0845 23.8878 21.9479C23.9463 21.8112 24.0322 21.687 24.1406 21.5822C25.7357 20.0409 26.66 18.0945 26.66 16.0006C26.66 13.908 25.737 11.9604 24.1406 10.4191C24.0322 10.3143 23.9463 10.1901 23.8878 10.0534C23.8294 9.91676 23.7994 9.77037 23.7998 9.6226C23.8002 9.47483 23.8308 9.32858 23.8899 9.19219C23.9491 9.0558 24.0356 8.93195 24.1445 8.82771C24.2534 8.72346 24.3826 8.64087 24.5247 8.58464C24.6668 8.52841 24.8191 8.49965 24.9728 8.5C25.1264 8.50035 25.2785 8.5298 25.4204 8.58667C25.5622 8.64354 25.691 8.72672 25.7994 8.83146ZM22.4831 12.6479C23.2969 13.573 23.8 14.7293 23.8 16.0006C23.8 17.272 23.2969 18.4295 22.4831 19.3533C22.2824 19.5811 21.9959 19.7229 21.6865 19.7475C21.3771 19.7721 21.0703 19.6776 20.8334 19.4846C20.5965 19.2916 20.4491 19.0161 20.4235 18.7186C20.3979 18.4211 20.4962 18.126 20.6969 17.8983C21.1948 17.3345 21.46 16.6807 21.46 16.0006C21.46 15.3206 21.1948 14.6668 20.6969 14.103C20.4962 13.8753 20.3979 13.5802 20.4235 13.2827C20.4491 12.9852 20.5965 12.7096 20.8334 12.5167C21.0703 12.3237 21.3771 12.2292 21.6865 12.2538C21.9959 12.2784 22.2824 12.4202 22.4831 12.6479Z" fill="#EBEBEB"/>
<path d="M16.325 6.00003C17.4976 6.00003 18.6 6.86759 18.6 8.11141V23.8886C18.6 25.1324 17.4976 26 16.325 26C15.3344 26 14.3685 25.65 13.6431 25.0024L8.1311 20.0834H5.782C4.3286 20.0834 3 19.0133 3 17.5207V14.4793C3 12.9855 4.3286 11.9166 5.782 11.9166H8.1311L13.6431 6.99634C14.3749 6.35171 15.3325 5.99596 16.325 6.00003ZM16.26 8.25142C15.8801 8.26171 15.5165 8.40176 15.2343 8.64645L9.3856 13.8668C9.16923 14.0597 8.88505 14.1668 8.59 14.1668H5.782C5.6 14.1668 5.34 14.273 5.34 14.4793V17.5207C5.34 17.7282 5.6 17.8333 5.782 17.8333H8.59C8.88523 17.8336 9.16943 17.9412 9.3856 18.1345L15.2356 23.3536C15.4956 23.5874 15.8609 23.7349 16.26 23.7499V8.25142ZM25.7994 8.83146C27.7754 10.7403 29 13.2405 29 16.0006C29 18.7608 27.7741 21.261 25.7994 23.1698C25.691 23.2746 25.5622 23.3577 25.4204 23.4146C25.2785 23.4715 25.1264 23.5009 24.9728 23.5013C24.8191 23.5016 24.6668 23.4729 24.5247 23.4166C24.3826 23.3604 24.2534 23.2778 24.1445 23.1736C24.0356 23.0693 23.9491 22.9455 23.8899 22.8091C23.8308 22.6727 23.8002 22.5265 23.7998 22.3787C23.7994 22.2309 23.8294 22.0845 23.8878 21.9479C23.9463 21.8112 24.0322 21.687 24.1406 21.5822C25.7357 20.0409 26.66 18.0945 26.66 16.0006C26.66 13.908 25.737 11.9604 24.1406 10.4191C24.0322 10.3143 23.9463 10.1901 23.8878 10.0534C23.8294 9.91676 23.7994 9.77037 23.7998 9.6226C23.8002 9.47483 23.8308 9.32858 23.8899 9.19219C23.9491 9.0558 24.0356 8.93195 24.1445 8.82771C24.2534 8.72346 24.3826 8.64087 24.5247 8.58464C24.6668 8.52841 24.8191 8.49965 24.9728 8.5C25.1264 8.50035 25.2785 8.5298 25.4204 8.58667C25.5622 8.64354 25.691 8.72672 25.7994 8.83146ZM22.4831 12.6479C23.2969 13.573 23.8 14.7293 23.8 16.0006C23.8 17.272 23.2969 18.4295 22.4831 19.3533C22.2824 19.5811 21.9959 19.7229 21.6865 19.7475C21.3771 19.7721 21.0703 19.6776 20.8334 19.4846C20.5965 19.2916 20.4491 19.0161 20.4235 18.7186C20.3979 18.4211 20.4962 18.126 20.6969 17.8983C21.1948 17.3345 21.46 16.6807 21.46 16.0006C21.46 15.3206 21.1948 14.6668 20.6969 14.103C20.4962 13.8753 20.3979 13.5802 20.4235 13.2827C20.4491 12.9852 20.5965 12.7096 20.8334 12.5167C21.0703 12.3237 21.3771 12.2292 21.6865 12.2538C21.9959 12.2784 22.2824 12.4202 22.4831 12.6479Z" fill="#020202" fill-opacity="0.2"/>
</svg>
