<svg width="20" height="20" viewBox="0 0 20 20" fill="none" xmlns="http://www.w3.org/2000/svg">
<g id="search" clip-path="url(#clip0_4089_6782)">
<g id="Page-2">
<g id="search_28">
<g id="Mask">
<path d="M14.6574 13.5473L17.3405 16.2303C17.6473 16.5371 17.6473 17.0346 17.3405 17.3414C17.0336 17.6483 16.5361 17.6483 16.2293 17.3414L13.5463 14.6584C12.3761 15.5878 10.8953 16.143 9.28488 16.143C5.49778 16.143 2.42773 13.0729 2.42773 9.28585C2.42773 5.49876 5.49778 2.42871 9.28488 2.42871C13.072 2.42871 16.142 5.49876 16.142 9.28585C16.142 10.8963 15.5868 12.3771 14.6574 13.5473ZM9.28488 14.5716C12.2041 14.5716 14.5706 12.2051 14.5706 9.28585C14.5706 6.36663 12.2041 4.00014 9.28488 4.00014C6.36566 4.00014 3.99916 6.36663 3.99916 9.28585C3.99916 12.2051 6.36566 14.5716 9.28488 14.5716Z" fill="#EBEBEB"/>
<path d="M14.6574 13.5473L17.3405 16.2303C17.6473 16.5371 17.6473 17.0346 17.3405 17.3414C17.0336 17.6483 16.5361 17.6483 16.2293 17.3414L13.5463 14.6584C12.3761 15.5878 10.8953 16.143 9.28488 16.143C5.49778 16.143 2.42773 13.0729 2.42773 9.28585C2.42773 5.49876 5.49778 2.42871 9.28488 2.42871C13.072 2.42871 16.142 5.49876 16.142 9.28585C16.142 10.8963 15.5868 12.3771 14.6574 13.5473ZM9.28488 14.5716C12.2041 14.5716 14.5706 12.2051 14.5706 9.28585C14.5706 6.36663 12.2041 4.00014 9.28488 4.00014C6.36566 4.00014 3.99916 6.36663 3.99916 9.28585C3.99916 12.2051 6.36566 14.5716 9.28488 14.5716Z" fill="#020202" fill-opacity="0.2"/>
</g>
</g>
</g>
</g>
<defs>
<clipPath id="clip0_4089_6782">
<rect width="20" height="20" fill="white"/>
</clipPath>
</defs>
</svg>
